<svg width="130" height="147" viewBox="0 0 130 147" fill="none" xmlns="http://www.w3.org/2000/svg">
<path fill-rule="evenodd" clip-rule="evenodd" d="M59.9847 0.0511177C58.5551 0.164928 54.7169 0.677762 53.3343 0.939801C48.745 1.80942 46.0957 2.68782 36.3313 6.57809L28.9953 9.50083V31.2987C28.9953 55.6197 28.9428 54.1641 29.9612 58.0686C31.6589 64.5777 35.6859 70.4255 41.4387 74.7359C43.5366 76.3077 43.3027 76.1652 54.6685 82.7961L64.7368 88.6701L74.9418 82.7136C80.5544 79.4375 85.6983 76.3861 86.3724 75.9329C88.13 74.751 89.8123 73.3759 91.3743 71.8444C96.1061 67.2048 98.8664 62.0442 100.119 55.4962L100.421 53.9194L100.462 31.7057L100.504 9.49206L92.791 6.43549C88.5487 4.75438 84.3375 3.1299 83.4325 2.82536C80.1834 1.73236 75.9646 0.798977 71.9828 0.292177C70.3382 0.0829299 61.7528 -0.0895687 59.9847 0.0511177ZM71.2287 4.95595C75.0212 5.43615 78.2357 6.13423 81.4408 7.17375C82.4608 7.50448 86.0721 8.87899 89.4658 10.228L95.6363 12.6809L95.6771 32.0661C95.7047 45.1016 95.6701 51.9227 95.5718 52.8909C94.8866 59.6332 91.6296 65.5848 86.1061 70.1873C84.3638 71.639 82.5035 72.8005 73.6779 77.947L64.7463 83.1555L55.7836 77.926C50.8542 75.0497 46.3583 72.3818 45.7927 71.9972C43.5864 70.497 41.6309 68.7726 40.0014 66.8901C36.4561 62.7943 34.4179 58.0564 33.8697 52.6364C33.777 51.7202 33.726 44.3905 33.726 31.9754V12.7344L40.2735 10.1316C43.8746 8.70004 47.5307 7.31032 48.398 7.04348C52.3313 5.83311 55.9731 5.15189 60.876 4.7094C62.2974 4.58119 69.6519 4.7563 71.2287 4.95595ZM60.8075 8.95523C60.5812 8.98567 59.7173 9.07795 58.8878 9.16022C56.1582 9.43117 52.3424 10.2246 49.4264 11.1278C48.8231 11.3147 46.0314 12.3805 43.2227 13.4964L38.1159 15.5254L38.1158 33.7625C38.1155 53.5399 38.1017 53.1363 38.8734 56.0355C40.0731 60.5426 42.9986 64.6684 47.2142 67.7985C48.0997 68.456 51.9439 70.795 56.7174 73.5809L64.7338 78.2592L72.3006 73.8462C80.8067 68.8853 80.9547 68.7951 82.4726 67.6456C87.2852 64.0013 90.1753 59.3256 91.1336 53.6333C91.3693 52.2328 91.3855 50.9627 91.3855 33.8388V15.5409L86.9976 13.7776C79.4839 10.7582 76.733 9.96595 71.0916 9.1967C69.666 9.00226 61.8245 8.8181 60.8075 8.95523ZM70.4745 13.8736C74.8522 14.4394 77.709 15.221 82.8497 17.2598L86.6548 18.7689V26.7444V34.7198L83.9467 32.047C82.4573 30.5769 80.3333 28.4851 79.2268 27.3987L77.2153 25.4235L75.6363 26.9191C74.7679 27.7418 71.9599 30.4697 69.3962 32.9811L64.7349 37.5475L58.5661 31.507C55.1733 28.1848 52.3491 25.4667 52.2903 25.4667C52.2315 25.4667 50.8534 26.7774 49.228 28.3794C47.6025 29.9813 45.5162 32.0326 44.5918 32.9377L42.9109 34.5833L42.9463 26.6351L42.9817 18.6867L45.8612 17.5459C47.445 16.9183 49.4504 16.157 50.3177 15.8538C53.2962 14.8129 57.2345 13.9964 60.8075 13.6789C62.8215 13.5 68.462 13.6136 70.4745 13.8736ZM56.956 36.6471L61.301 40.9028L52.964 49.0318C48.3788 53.5026 44.5654 57.1477 44.49 57.132C44.1548 57.0622 43.356 54.485 43.0612 52.5218C42.9754 51.9506 42.9131 49.3806 42.9131 46.4129V41.2902L47.575 36.7309C50.8871 33.4918 52.291 32.2035 52.424 32.2815C52.5268 32.3419 54.5662 34.3063 56.956 36.6471ZM81.999 36.8419L86.687 41.4295L86.6192 46.646C86.5395 52.7749 86.344 54.2815 85.3291 56.5866L85 57.3341L83.2564 55.6116C82.2974 54.6642 78.5447 50.9958 74.917 47.4596C71.2893 43.9232 68.3214 40.9682 68.322 40.8928C68.3229 40.7192 77.0873 32.1719 77.2158 32.2192C77.268 32.2384 79.4206 34.3187 81.999 36.8419ZM75.8908 55.157C79.36 58.5388 82.2166 61.3493 82.2391 61.4025C82.304 61.5571 80.1656 63.4386 78.9013 64.3392C77.5335 65.3136 64.8653 72.7238 64.6702 72.6636C64.3089 72.5524 51.8718 65.2265 50.8076 64.4981C49.6448 63.7023 47.301 61.6246 47.301 61.3897C47.301 61.3291 51.2301 57.4446 56.0323 52.7572L64.7635 44.2348L67.1735 46.6216C68.4989 47.9343 72.4216 51.7753 75.8908 55.157Z" fill="rgba(255,255,255,0.88)"/>
<path fill-rule="evenodd" clip-rule="evenodd" d="M59.9847 0.0511178C58.5551 0.164928 54.717 0.677762 53.3344 0.939801C48.745 1.80942 46.0957 2.68782 36.3313 6.57809L28.9953 9.50083V31.2987C28.9953 55.6197 28.9428 54.1641 29.9612 58.0687C31.6589 64.5777 35.6859 70.4255 41.4387 74.7359C43.5366 76.3077 43.3027 76.1652 54.6686 82.7962L64.7368 88.6702L74.9418 82.7136C80.5544 79.4375 85.6983 76.3861 86.3724 75.933C88.13 74.751 89.8123 73.3759 91.3743 71.8444C96.1061 67.2048 98.8664 62.0442 100.119 55.4963L100.421 53.9194L100.462 31.7057L100.504 9.49206L92.791 6.43549C88.5488 4.75438 84.3375 3.1299 83.4325 2.82536C80.1834 1.73236 75.9646 0.798977 71.9829 0.292177C70.3382 0.0829299 61.7528 -0.0895687 59.9847 0.0511178ZM71.2287 4.95595C75.0212 5.43615 78.2357 6.13423 81.4408 7.17375C82.4608 7.50448 86.0721 8.87899 89.4658 10.228L95.6363 12.6809L95.6771 32.0661C95.7047 45.1016 95.6702 51.9227 95.5718 52.8909C94.8866 59.6332 91.6296 65.5848 86.1061 70.1873C84.3638 71.639 82.5035 72.8006 73.678 77.947L64.7463 83.1555L55.7836 77.926C50.8542 75.0498 46.3583 72.3818 45.7927 71.9972C43.5864 70.4971 41.6309 68.7726 40.0014 66.8901C36.4561 62.7943 34.4179 58.0564 33.8697 52.6365C33.777 51.7202 33.726 44.3905 33.726 31.9754V12.7344L40.2736 10.1316C43.8746 8.70004 47.5307 7.31032 48.398 7.04348C52.3313 5.83311 55.9731 5.15189 60.876 4.7094C62.2974 4.58119 69.6519 4.7563 71.2287 4.95595ZM60.8075 8.95523C60.5812 8.98567 59.7174 9.07795 58.8878 9.16022C56.1582 9.43117 52.3424 10.2246 49.4264 11.1278C48.8231 11.3147 46.0314 12.3805 43.2228 13.4964L38.116 15.5254L38.1158 33.7625C38.1155 53.5399 38.1017 53.1363 38.8734 56.0356C40.0731 60.5426 42.9986 64.6684 47.2142 67.7985C48.0998 68.456 51.944 70.795 56.7174 73.5809L64.7338 78.2592L72.3006 73.8462C80.8068 68.8853 80.9547 68.7951 82.4726 67.6456C87.2852 64.0013 90.1753 59.3256 91.1336 53.6333C91.3693 52.2328 91.3855 50.9628 91.3855 33.8388V15.5409L86.9976 13.7776C79.4839 10.7582 76.733 9.96595 71.0916 9.1967C69.6661 9.00226 61.8245 8.81811 60.8075 8.95523ZM70.4745 13.8736C74.8523 14.4394 77.709 15.221 82.8497 17.2598L86.6548 18.7689V26.7444V34.7198L83.9467 32.047C82.4573 30.5769 80.3333 28.4851 79.2268 27.3987L77.2153 25.4235L75.6363 26.9191C74.7679 27.7418 71.96 30.4697 69.3962 32.9811L64.7349 37.5475L58.5661 31.507C55.1733 28.1848 52.3491 25.4667 52.2903 25.4667C52.2315 25.4667 50.8534 26.7774 49.228 28.3794C47.6026 29.9813 45.5163 32.0326 44.5918 32.9377L42.911 34.5833L42.9463 26.6351L42.9817 18.6867L45.8613 17.5459C47.445 16.9183 49.4504 16.157 50.3177 15.8538C53.2962 14.8129 57.2345 13.9964 60.8075 13.6789C62.8215 13.5 68.462 13.6136 70.4745 13.8736ZM56.956 36.6471L61.301 40.9028L52.964 49.0318C48.3788 53.5026 44.5655 57.1477 44.49 57.132C44.1548 57.0622 43.356 54.485 43.0612 52.5218C42.9754 51.9506 42.9131 49.3806 42.9131 46.4129V41.2902L47.575 36.7309C50.8872 33.4919 52.291 32.2035 52.424 32.2815C52.5269 32.3419 54.5663 34.3063 56.956 36.6471ZM81.999 36.8419L86.6871 41.4295L86.6192 46.646C86.5395 52.7749 86.344 54.2815 85.3291 56.5866L85.0001 57.3341L83.2564 55.6116C82.2974 54.6642 78.5447 50.9958 74.917 47.4596C71.2893 43.9232 68.3214 40.9683 68.322 40.8928C68.323 40.7192 77.0873 32.1719 77.2158 32.2192C77.2681 32.2384 79.4206 34.3187 81.999 36.8419ZM75.8908 55.157C79.36 58.5388 82.2166 61.3493 82.2391 61.4025C82.304 61.5572 80.1656 63.4386 78.9013 64.3392C77.5335 65.3136 64.8653 72.7238 64.6702 72.6636C64.3089 72.5524 51.8718 65.2265 50.8076 64.4981C49.6448 63.7023 47.301 61.6246 47.301 61.3897C47.301 61.3291 51.2301 57.4446 56.0324 52.7573L64.7636 44.2348L67.1735 46.6216C68.4989 47.9343 72.4216 51.7753 75.8908 55.157Z" fill="#D5A62E"/>
</svg>
